<svg xmlns="http://www.w3.org/2000/svg" width="53" height="20" fill="none"><path fill="#262626" d="M7.783 0c-.224 0-.445.011-.663.032v14.11c.22.025.441.038.663.04A7.09 7.09 0 0 0 7.783 0Zm2.59 7.725a9.566 9.566 0 0 1-.176 1.323H8.538V7.725h1.835ZM8.529 6.42V5.09h1.651c.093.435.156.877.187 1.32l-1.838.01Zm3.228 1.325h1.663c-.05.452-.155.896-.312 1.323h-1.52c.092-.436.155-.878.186-1.323m0-1.325a9.535 9.535 0 0 0-.187-1.321h1.527c.156.426.26.87.31 1.321h-1.65Zm.627-2.646h-1.196a8.694 8.694 0 0 0-.901-1.776A5.698 5.698 0 0 1 12.4 3.773Zm-2.584 0H8.546V1.457c.539.7.968 1.477 1.27 2.307m-1.27 8.957v-2.342h1.29a8.583 8.583 0 0 1-1.288 2.34l-.002.002Zm1.769-.541c.37-.563.674-1.166.905-1.8h1.201a5.704 5.704 0 0 1-2.106 1.8Zm20.293 1.143h-3.72V1.595h3.66C32.916 1.595 34 3.215 34 4.64c0 1.12-.462 1.866-1.405 2.437v.035c1.353.3 2.169 1.247 2.169 2.67 0 1.68-1.21 3.546-4.16 3.546M30.25 3.42h-1.211v3.051h1.136c.963 0 1.68-.621 1.68-1.6 0-.835-.572-1.458-1.602-1.458m.407 4.852h-1.618v3.243h1.37c1.443 0 2.152-.644 2.152-1.708 0-.908-.695-1.53-1.904-1.53m12.741-4.876h-3.12v9.926H38.11V3.394h-3.396V1.595h9.39l-.702 1.8Zm-19.789 9.93-1.159-2.94h-4.189l-1.08 2.94h-2.156l4.542-11.73h1.613l4.7 11.73h-2.27Zm-2.767-7.396a11.721 11.721 0 0 1-.454-1.45h-.018a9.253 9.253 0 0 1-.43 1.424l-1.017 2.723h2.852l-.933-2.697Zm29.623 7.395-1.157-2.939h-4.185l-1.084 2.94h-2.158L46.42 1.596h1.614l4.699 11.726h-2.264Zm-2.775-7.395c-.179-.473-.327-.957-.444-1.45h-.018a9.257 9.257 0 0 1-.426 1.424l-1.017 2.73h2.86l-.955-2.704ZM6.448 5.75v-.537L3.058 1.82a6.931 6.931 0 0 0-.538.536L5.916 5.75h.532Zm0 2.635v.537l-3.39 3.393a7.313 7.313 0 0 1-.538-.537l3.396-3.395.532.002Zm0-1.967H.723a6.992 6.992 0 0 0 0 1.32h5.721l.004-1.32ZM2.147 2.8A7.007 7.007 0 0 0 .84 5.744h4.256L2.147 2.8ZM6.448 4.39V.141a7.022 7.022 0 0 0-2.943 1.306L6.448 4.39ZM3.505 12.69a7.022 7.022 0 0 0 2.943 1.306V9.747L3.505 12.69Zm1.586-4.303H.837c.2 1.07.648 2.077 1.306 2.944l2.948-2.944ZM4.59 17h-.933v2.915h-.644V17h-.999v-.528h2.729L4.59 17Zm1.489 1.025a.58.58 0 0 0-.293-.079.72.72 0 0 0-.476.22v1.75h-.625v-2.472h.528l.067.262a.998.998 0 0 1 .685-.32c.123 0 .243.037.345.105l-.231.534Zm1.912 1.89-.104-.22c-.194.18-.452.278-.717.272a.77.77 0 0 1-.81-.726v-.069c0-.51.403-.789 1.034-.81l.439-.014v-.06c0-.299-.21-.418-.47-.418a1.205 1.205 0 0 0-.639.186l-.203-.391a1.63 1.63 0 0 1 .966-.273c.613 0 .982.25.982.9v.977c-.013.22.002.439.047.654l-.525-.008Zm-.156-1.134-.355.01c-.34.012-.49.126-.49.335 0 .209.141.345.402.345a.646.646 0 0 0 .444-.157l-.001-.534Zm2.334 1.15h-.455L8.7 17.445h.642l.616 1.68h.011l.627-1.68h.607l-1.034 2.488Zm1.791-1.083a.652.652 0 0 0 .687.621c.225 0 .447-.06.642-.172l.151.403a1.59 1.59 0 0 1-.892.267c-.862 0-1.228-.627-1.228-1.291 0-.705.418-1.291 1.12-1.291.668 0 1.108.507 1.108 1.274v.187l-1.588.002Zm.47-.988a.51.51 0 0 0-.485.536h.961c-.01-.267-.156-.543-.475-.543v.007Zm2.163 2.107c-.412 0-.56-.235-.56-.543v-3.207h.628v2.931c0 .187.037.256.168.256a.79.79 0 0 0 .186-.026l.078.464a.98.98 0 0 1-.5.125Zm4.79-.035h-.475l-.56-1.68h-.011l-.56 1.68h-.478l-.901-2.488h.638l.528 1.68h.011l.543-1.68h.487l.549 1.68h.011l.517-1.68h.603l-.901 2.488Zm1.605-2.876a.374.374 0 1 1 .392-.373.386.386 0 0 1-.392.373Zm-.313 2.853v-2.465h.627v2.471l-.627-.006Zm2.122.058c-.44 0-.613-.246-.613-.58v-1.472h-.438v-.473h.437v-.572l.627-.187v.758h.768l-.186.47h-.586v1.243c0 .186.073.282.235.282a.815.815 0 0 0 .412-.137l.168.398a1.52 1.52 0 0 1-.824.27Zm2.78-.052v-1.44c0-.277-.041-.538-.373-.538a.991.991 0 0 0-.601.261v1.719h-.627v-3.7h.632v1.492c.227-.201.518-.316.821-.324.374 0 .79.186.79.908v1.62l-.642.002Zm3.547.052c-.804 0-1.216-.58-1.216-1.274a1.258 1.258 0 0 1 1.203-1.306h.077c.246-.01.49.05.705.171l-.011.512a.972.972 0 0 0-.622-.204.747.747 0 0 0-.735.758v.037c0 .424.23.799.72.799.207 0 .41-.057.586-.165l.157.413a1.638 1.638 0 0 1-.864.26Zm3.24-.354a1.226 1.226 0 0 1-2.118-.92c-.01-.354.119-.697.36-.956a1.206 1.206 0 0 1 .877-.35 1.228 1.228 0 0 1 .909.354c.224.258.341.592.328.933a1.304 1.304 0 0 1-.356.939Zm-.9-1.73c-.397 0-.59.334-.59.795 0 .46.225.804.607.804s.59-.34.59-.804c0-.465-.219-.795-.607-.795Zm3.344 2.032v-1.452c0-.255-.047-.537-.373-.537-.232.018-.451.11-.627.261v1.73h-.616v-2.473h.528l.067.267c.244-.202.55-.317.866-.324.373 0 .778.223.778.888v1.64h-.623Zm2.63-3.12a.821.821 0 0 0-.314-.067c-.198 0-.293.12-.293.334v.392h.653l-.162.481h-.491v1.991h-.627v-2.002h-.36v-.482h.36v-.345c0-.731.528-.882.873-.882.168.002.333.039.485.11l-.125.47Zm.792.261a.373.373 0 1 1 .392-.373.386.386 0 0 1-.392.373Zm-.313 2.853v-2.465h.627v2.471l-.627-.006Zm2.521.058c-.746 0-1.344-.433-1.344-1.269 0-.768.57-1.306 1.37-1.306.105-.002.21.005.314.02v-1.195h.632v3.545a2.082 2.082 0 0 1-.972.205Zm.34-2.052a1.039 1.039 0 0 0-.293-.038.73.73 0 0 0-.765.693v.091a.744.744 0 0 0 .707.784h.065c.095 0 .19-.013.282-.038l.004-1.492Zm1.713.933a.655.655 0 0 0 .686.621c.225 0 .446-.058.64-.17l.151.403a1.584 1.584 0 0 1-.897.269c-.862 0-1.228-.627-1.228-1.291 0-.706.418-1.292 1.12-1.292.668 0 1.108.508 1.108 1.275v.186l-1.58-.001Zm.47-.988a.51.51 0 0 0-.485.536h.96c-.01-.267-.156-.543-.475-.543v.007Zm3.217 2.055v-1.452c0-.255-.047-.537-.373-.537-.232.018-.451.11-.627.261v1.73h-.635v-2.473h.534l.067.267a1.41 1.41 0 0 1 .868-.324c.373 0 .778.223.778.888v1.64h-.612Zm2.305.052c-.805 0-1.217-.58-1.217-1.274a1.258 1.258 0 0 1 1.203-1.306h.077c.246-.01.49.05.705.171l-.01.512a.972.972 0 0 0-.622-.204.748.748 0 0 0-.728.765v.03c0 .424.23.799.72.799a1.12 1.12 0 0 0 .586-.172l.157.412c-.26.17-.562.263-.871.267Zm1.75-1.12a.655.655 0 0 0 .687.622c.225 0 .446-.06.641-.172l.152.403a1.59 1.59 0 0 1-.9.273c-.862 0-1.228-.627-1.228-1.291 0-.706.418-1.292 1.12-1.292.668 0 1.108.508 1.108 1.275v.186l-1.58-.003Zm.468-.99a.509.509 0 0 0-.485.535h.961c-.011-.267-.159-.543-.476-.543v.008Z"/></svg>