<svg xmlns="http://www.w3.org/2000/svg" width="64" height="24" fill="none"><path fill="#262626" fill-rule="evenodd" d="m2.098 13.455.01.053.786-.219c.13.479.321.797.787.668.295-.082.388-.323.29-.692l-.177-.654L2 13.109l.017.047c.018.05.036.098.05.149.013.049.022.1.03.15Zm.943-.198-.002-.008.721-.2.045.165c.037.138-.072.285-.282.344-.16.044-.325.021-.419-.139-.027-.05-.045-.107-.063-.162Zm1.195.826.292.506.014.024c.065.112.156.268.162.39a.413.413 0 0 1-.215.405c-.23.137-.46.074-.636-.12a12.62 12.62 0 0 0-.32.626l-.093.188-.092.179-.03-.06c-.025-.054-.052-.11-.083-.163a2.462 2.462 0 0 0-.135-.207l.327-.576.095-.171.076-.139-.01-.016-.75.448-.02-.042a1.773 1.773 0 0 0-.072-.144 1.71 1.71 0 0 0-.114-.171l1.604-.957Zm-.546.806c.121.264.31.317.55.174a.668.668 0 0 0 .11-.082c.158-.142.068-.294-.013-.43a4.53 4.53 0 0 1-.02-.036l-.627.374Zm10.73.348c.377-.45.842-.385 1.19-.104.481.386.499.959.154 1.402l-.471.606-1.448-1.165.575-.74Zm1.002 1.48.143-.184c.232-.299.262-.644-.236-1.043-.4-.322-.707-.256-.944.049l-.164.212 1.2.966Zm-1.844-.534.012.024a.592.592 0 0 0 .044.08c.016.024.037.046.058.068l.02.021c-.148.08-.31.17-.534.336l.336.484.23-.165c.1-.072.185-.146.26-.216l.009.02c.014.03.029.06.046.085a.56.56 0 0 0 .059.068l.011.012.008.009c-.09.047-.187.104-.286.175l-.23.166.396.571c.225-.164.368-.283.49-.398l.012.024c.014.028.027.056.044.081.016.023.037.044.057.065l.022.024-.845.605-1.064-1.534.845-.605Zm-.904 2.72.054-.016-.609-1.578c.15-.06.303-.101.455-.142l.01-.003-.004-.008-.008-.014a.54.54 0 0 1-.043-.083c-.01-.028-.017-.057-.023-.087l-.005-.025-1.3.518.012.022c.016.026.03.053.042.08.011.03.018.06.024.09l.006.026c.124-.07.276-.151.455-.223l.61 1.578.044-.022c.046-.024.092-.047.14-.066.045-.018.093-.032.14-.046Zm-1.484.178-.037.242a1.168 1.168 0 0 1-.523.17c-.578.057-1.05-.261-1.103-.824-.068-.716.387-1.09.975-1.149.178-.017.398.008.563.08a3.31 3.31 0 0 0-.022.179l-.013.11-.038.004a.562.562 0 0 0-.472-.208c-.448.044-.587.498-.549.901.045.47.303.777.719.735a.757.757 0 0 0 .463-.253l.037.013Zm-1.95-1.425.008-.024-1.018-.176-.309 1.85 1.019.177v-.028c0-.03.001-.062.006-.091.004-.029.014-.058.023-.086l.01-.03a4.906 4.906 0 0 1-.624-.068l.115-.69.278.048c.12.02.228.05.324.081v-.011l.001-.018c0-.03 0-.061.006-.09.005-.03.015-.06.024-.088l.009-.027a2.409 2.409 0 0 1-.333-.032l-.278-.048.097-.584c.274.041.452.095.611.145v-.028c.001-.03.002-.063.007-.092a.606.606 0 0 1 .024-.09Zm-2.467 1.287a4.59 4.59 0 0 1-.048-.027c-.044-.024-.088-.048-.133-.068-.045-.02-.092-.036-.139-.052a3.313 3.313 0 0 1-.053-.018l.662-1.556a3.694 3.694 0 0 0-.478-.168l.016-.026c.015-.024.03-.05.042-.077a.535.535 0 0 0 .025-.082l.008-.03 1.282.564-.014.022c-.016.026-.032.051-.044.078-.012.028-.019.056-.026.084l-.008.03a4.09 4.09 0 0 0-.43-.23l-.662 1.555Zm-2.391-2.799c-.406.472-.334 1.012.117 1.413.5.445 1.102.373 1.448-.034.275-.323.463-.892-.119-1.41-.508-.452-1.091-.381-1.446.031Zm.235 1.298c-.306-.273-.18-.666.052-.936.4-.465.757-.532 1.04-.28.306.273.165.69-.066.957-.296.344-.712.538-1.026.259Zm6.737-2.95.154-.877.357.065-.126.72.846.152-.027.158-1.204-.218Zm-1.393-.47a.26.26 0 0 1-.086-.25.257.257 0 0 1 .166-.206.63.63 0 0 1 .352-.019c.141.026.25.073.323.141a.263.263 0 0 1 .084.251.26.26 0 0 1-.164.206.626.626 0 0 1-.35.02.637.637 0 0 1-.325-.142Zm1-.427c-.116-.091-.297-.159-.541-.203-.244-.044-.437-.044-.578.001-.187.05-.294.154-.323.315-.027.157.039.294.197.409.117.091.297.159.541.203.245.044.437.044.578-.001.187-.053.294-.158.322-.315.028-.16-.037-.297-.195-.409Zm-2.893-.6 1.384.25-.027.155-.511-.092-.126.721-.36-.065.126-.721-.513-.093.027-.155Zm-1.2.345.282-.304.153.383-.434-.08Zm.522-.469-.403-.072-.763.766.373.067.147-.159.632.115.079.2.387.07-.452-.987Zm5.741.285-.474 2.715L5.49 14.59 7.065 5.5l1.41.255c-1.062 1.954-1.05 4.092.645 5.89 1.695 1.799 4.011 1.51 4.011 1.51Zm-2.964-2.5c1.008 2.04 3.038 2.067 3.038 2.067l1.039-5.939-2.572-.465s-2.898 1.516-1.505 4.337Z" clip-rule="evenodd"/><path fill="#262626" d="m8.003 5.242.04-.266.264.04.092-.631-.233-.034.03-.204c.071-.004.133-.011.185-.022a.947.947 0 0 0 .155-.05l.245.036-.14.953.222.033-.039.265-.82-.12ZM9.054 5.396l.039-.266.265.039.092-.63-.234-.035.03-.203c.072-.004.134-.012.186-.022a.947.947 0 0 0 .155-.05l.245.036-.14.953.222.032-.039.266-.82-.12ZM10.495 5.63a.586.586 0 0 1-.22-.075.392.392 0 0 1-.14-.14.286.286 0 0 1-.031-.184.266.266 0 0 1 .082-.167c.045-.039.1-.07.162-.092l.002-.007a.546.546 0 0 1-.1-.143.297.297 0 0 1-.022-.17.322.322 0 0 1 .243-.274.52.52 0 0 1 .22-.011.41.41 0 0 1 .265.133c.063.07.086.158.071.261a.25.25 0 0 1-.068.142.388.388 0 0 1-.127.091l-.001.008c.056.04.1.09.133.147a.307.307 0 0 1 .032.205.292.292 0 0 1-.082.166.396.396 0 0 1-.175.1.596.596 0 0 1-.244.01Zm.183-.739a.336.336 0 0 0 .052-.069.237.237 0 0 0 .025-.077c.006-.042 0-.076-.019-.103a.118.118 0 0 0-.086-.05.123.123 0 0 0-.084.018c-.024.014-.04.043-.046.085a.123.123 0 0 0 .033.105c.028.029.07.06.125.091Zm-.142.513c.037.006.07 0 .1-.015.028-.015.046-.046.052-.092a.111.111 0 0 0-.047-.111 1.399 1.399 0 0 0-.157-.107.246.246 0 0 0-.088.156.133.133 0 0 0 .032.116c.029.03.065.047.108.053ZM11.55 5.784a.41.41 0 0 1-.31-.21c-.068-.121-.087-.286-.056-.495.03-.21.095-.36.195-.45a.414.414 0 0 1 .355-.11c.137.02.24.089.308.206.07.118.09.28.06.488-.03.21-.097.362-.198.458a.405.405 0 0 1-.355.113Zm.036-.254a.108.108 0 0 0 .077-.018c.024-.016.047-.05.069-.104a1.16 1.16 0 0 0 .055-.24 1.1 1.1 0 0 0 .015-.244c-.005-.056-.017-.094-.037-.113a.113.113 0 0 0-.068-.038.113.113 0 0 0-.076.016c-.024.014-.047.047-.068.099-.02.05-.039.13-.054.237-.016.108-.022.19-.017.247.005.057.017.097.037.12.019.022.041.035.067.038ZM12.702 5.38a.182.182 0 0 0-.173.08c0 .058.007.103.02.137.013.033.03.057.05.072a.13.13 0 0 0 .156.003c.032-.02.052-.062.061-.126.01-.06 0-.1-.025-.124a.16.16 0 0 0-.09-.043Zm-.07.562a.452.452 0 0 1-.31-.189.562.562 0 0 1-.084-.204.873.873 0 0 1 0-.288.824.824 0 0 1 .126-.355.513.513 0 0 1 .22-.19.524.524 0 0 1 .622.175l-.204.171a.257.257 0 0 0-.073-.07.231.231 0 0 0-.1-.042.2.2 0 0 0-.165.05c-.05.042-.087.124-.112.246a.29.29 0 0 1 .126-.074.31.31 0 0 1 .124-.013c.07.01.13.032.182.067a.291.291 0 0 1 .117.143c.025.06.032.134.02.22a.423.423 0 0 1-.092.217.398.398 0 0 1-.177.12.482.482 0 0 1-.22.016Z"/><rect width="18" height="18" x=".5" y="3" stroke="#262626" rx="9"/><path fill="#262626" d="m23.3 7.7-.16.6h1.39l-.15-.6c-.087-.327-.177-.673-.27-1.04-.087-.367-.173-.72-.26-1.06h-.04c-.08.347-.163.703-.25 1.07-.08.36-.167.703-.26 1.03ZM20.94 11l2.04-6.52h1.77L26.79 11h-1.56l-.4-1.55h-1.99l-.4 1.55h-1.5Zm7.1 0V5.72h-1.79V4.48h5.06v1.24h-1.79V11h-1.48Zm6.653.12c-.586 0-1.103-.137-1.55-.41a2.827 2.827 0 0 1-1.04-1.17c-.246-.513-.37-1.123-.37-1.83 0-.713.124-1.317.37-1.81.254-.5.6-.88 1.04-1.14.447-.267.964-.4 1.55-.4.587 0 1.1.133 1.54.4.447.26.794.64 1.04 1.14.254.5.38 1.103.38 1.81 0 .707-.126 1.317-.38 1.83a2.738 2.738 0 0 1-1.04 1.17c-.44.273-.953.41-1.54.41Zm0-1.27c.447 0 .8-.193 1.06-.58.26-.387.39-.907.39-1.56s-.13-1.163-.39-1.53a1.232 1.232 0 0 0-1.06-.55c-.446 0-.8.183-1.06.55-.26.367-.39.877-.39 1.53s.13 1.173.39 1.56.614.58 1.06.58ZM38.88 11V4.48h1.47v5.28h2.58V11h-4.05ZM21.77 21v-6.52h2.24c.48 0 .913.067 1.3.2.393.127.707.343.94.65.233.307.35.723.35 1.25 0 .507-.117.923-.35 1.25-.233.327-.543.57-.93.73-.387.153-.81.23-1.27.23h-.81V21h-1.47Zm1.47-3.38h.72c.8 0 1.2-.347 1.2-1.04 0-.34-.107-.58-.32-.72-.213-.14-.52-.21-.92-.21h-.68v1.97ZM27.607 21v-4.96h1.2l.1.87h.04c.18-.333.397-.58.65-.74.253-.167.507-.25.76-.25.14 0 .257.01.35.03a.782.782 0 0 1 .24.07l-.24 1.27a1.817 1.817 0 0 0-.54-.08c-.187 0-.383.07-.59.21-.2.133-.367.367-.5.7V21h-1.47Zm6.017.12c-.42 0-.817-.1-1.19-.3a2.375 2.375 0 0 1-.89-.89c-.227-.393-.34-.863-.34-1.41 0-.553.113-1.023.34-1.41a2.3 2.3 0 0 1 .89-.88 2.42 2.42 0 0 1 2.37 0c.366.2.663.493.89.88.226.387.34.857.34 1.41 0 .547-.114 1.017-.34 1.41a2.376 2.376 0 0 1-.89.89c-.367.2-.76.3-1.18.3Zm0-1.19c.3 0 .526-.127.68-.38.153-.26.23-.603.23-1.03 0-.433-.077-.777-.23-1.03a.746.746 0 0 0-.68-.38.754.754 0 0 0-.69.38c-.147.253-.22.597-.22 1.03 0 .427.073.77.22 1.03.153.253.383.38.69.38Zm5.063 1.19c-.613 0-1.053-.177-1.32-.53-.26-.353-.39-.817-.39-1.39v-2.01h-.68V16.1l.76-.06.17-1.32h1.22v1.32h1.19v1.15h-1.19v1.99c0 .28.057.483.17.61.12.12.277.18.47.18.08 0 .16-.01.24-.03.087-.02.163-.043.23-.07l.23 1.07c-.127.04-.283.08-.47.12-.18.04-.39.06-.63.06Zm3.962 0c-.473 0-.9-.103-1.28-.31a2.266 2.266 0 0 1-.9-.89c-.22-.387-.33-.853-.33-1.4 0-.54.11-1.003.33-1.39a2.4 2.4 0 0 1 .88-.89c.36-.213.737-.32 1.13-.32.474 0 .864.107 1.17.32.314.207.547.49.7.85.16.353.24.757.24 1.21a3.637 3.637 0 0 1-.06.65h-2.97c.067.36.217.627.45.8.234.167.514.25.84.25.354 0 .71-.11 1.07-.33l.49.89a3.24 3.24 0 0 1-.85.41c-.313.1-.616.15-.91.15Zm-1.1-3.14h1.79c0-.273-.066-.497-.2-.67-.126-.18-.336-.27-.63-.27-.226 0-.43.08-.61.24-.18.153-.296.387-.35.7Zm6.216 3.14c-.46 0-.877-.1-1.25-.3a2.304 2.304 0 0 1-.88-.89c-.213-.393-.32-.863-.32-1.41 0-.553.12-1.023.36-1.41s.557-.68.95-.88a2.69 2.69 0 0 1 1.27-.31c.307 0 .577.05.81.15.24.1.453.227.64.38l-.69.95c-.233-.193-.457-.29-.67-.29-.353 0-.637.127-.85.38-.207.253-.31.597-.31 1.03 0 .427.103.77.31 1.03.213.253.48.38.8.38.16 0 .317-.033.47-.1.153-.073.293-.16.42-.26l.58.96a2.313 2.313 0 0 1-.8.46c-.287.087-.567.13-.84.13Zm4.32 0c-.613 0-1.053-.177-1.32-.53-.26-.353-.39-.817-.39-1.39v-2.01h-.68V16.1l.76-.06.17-1.32h1.22v1.32h1.19v1.15h-1.19v1.99c0 .28.057.483.17.61.12.12.277.18.47.18.08 0 .16-.01.24-.03.087-.02.164-.043.23-.07l.23 1.07c-.126.04-.283.08-.47.12-.18.04-.39.06-.63.06Zm3.963 0c-.474 0-.9-.103-1.28-.31a2.266 2.266 0 0 1-.9-.89c-.22-.387-.33-.853-.33-1.4 0-.54.11-1.003.33-1.39a2.4 2.4 0 0 1 .88-.89c.36-.213.736-.32 1.13-.32.473 0 .863.107 1.17.32.313.207.546.49.7.85.16.353.24.757.24 1.21a3.61 3.61 0 0 1-.06.65h-2.97c.066.36.216.627.45.8.233.167.513.25.84.25.353 0 .71-.11 1.07-.33l.49.89c-.254.173-.537.31-.85.41-.314.1-.617.15-.91.15Zm-1.1-3.14h1.79c0-.273-.067-.497-.2-.67-.127-.18-.337-.27-.63-.27-.227 0-.43.08-.61.24-.18.153-.297.387-.35.7Zm5.825 3.14c-.613 0-1.106-.23-1.48-.69-.366-.467-.55-1.103-.55-1.91 0-.54.097-1.003.29-1.39.2-.393.457-.693.77-.9.32-.207.654-.31 1-.31.274 0 .504.047.69.14.187.093.364.22.53.38l-.06-.76v-1.69h1.47V21h-1.2l-.1-.49h-.04c-.173.173-.376.32-.61.44a1.61 1.61 0 0 1-.71.17Zm.38-1.2c.16 0 .304-.033.43-.1.134-.067.26-.183.38-.35v-2.03a1.066 1.066 0 0 0-.41-.25 1.292 1.292 0 0 0-.41-.07c-.233 0-.44.113-.62.34-.18.22-.27.567-.27 1.04 0 .487.077.847.23 1.08.16.227.384.34.67.34Z"/></svg>