<svg xmlns="http://www.w3.org/2000/svg" width="38" height="38" fill="none"><path stroke="#D74113" stroke-linecap="round" stroke-linejoin="round" stroke-width="2" d="M5.47 21.857a10.5 10.5 0 1 1 3.673 3.674h0l-3.628 1.036a.875.875 0 0 1-1.082-1.082l1.036-3.628h0Z"/><path stroke="#D74113" stroke-linecap="round" stroke-linejoin="round" stroke-width="2" d="M14 26.98a10.547 10.547 0 0 0 2.395 3.904 10.272 10.272 0 0 0 3.8 2.484 10.1 10.1 0 0 0 8.767-.838h0l3.554 1.037a.84.84 0 0 0 .842-.223.88.88 0 0 0 .218-.86l-1.016-3.629h0a10.677 10.677 0 0 0 1.437-5.124 10.69 10.69 0 0 0-1.21-5.186 10.43 10.43 0 0 0-3.545-3.912A10.147 10.147 0 0 0 24.272 13M10.32 14.233h7.436M10.32 19.352h7.436"/></svg>