<svg xmlns="http://www.w3.org/2000/svg" width="26" height="34" fill="none"><path fill="#D74113" stroke="#D74113" stroke-width="1.067" d="M3.218 33A2.22 2.22 0 0 1 1 30.783V17.295c0-1.126.857-2.07 1.971-2.194v-4.342a.44.44 0 0 1 .023-.141A10.068 10.068 0 0 1 13.07 1c5.405 0 9.822 4.225 10.068 9.622.015.044.024.09.024.138v4.34a2.215 2.215 0 0 1 1.98 2.195v13.488A2.22 2.22 0 0 1 22.922 33H3.219Zm0-17.021c-.726 0-1.317.59-1.317 1.316v13.488c0 .725.591 1.316 1.317 1.316h19.706c.726 0 1.317-.59 1.317-1.316V17.295c0-.725-.591-1.316-1.317-1.316H3.218Zm19.043-.901v-4.191a.552.552 0 0 1-.018-.11A9.145 9.145 0 0 0 13.071 1.9a9.154 9.154 0 0 0-9.182 8.875.484.484 0 0 1-.016.108v4.194h2.635l.015-4.219a6.53 6.53 0 0 1 6.548-6.326 6.515 6.515 0 0 1 6.538 6.327l.018.41v3.808h2.634Zm-3.535 0-.018-4.19a5.615 5.615 0 0 0-5.637-5.454 5.628 5.628 0 0 0-5.646 5.456l-.017.393v3.795h11.318Z"/><path fill="#D74113" stroke="#D74113" stroke-width=".863" d="M13.071 30.133a6.101 6.101 0 0 1-6.095-6.092 6.102 6.102 0 0 1 6.095-6.094 6.102 6.102 0 0 1 6.095 6.094 6.1 6.1 0 0 1-6.095 6.092Zm0-11.213a5.127 5.127 0 0 0-5.122 5.12 5.127 5.127 0 0 0 5.122 5.12 5.127 5.127 0 0 0 5.122-5.12 5.127 5.127 0 0 0-5.122-5.12Z"/><path fill="#D74113" stroke="#D74113" stroke-linejoin="round" stroke-width=".305" d="M11.105 26.749v-.623c.28-.141.506-.338.675-.592.17-.254.255-.543.255-.864a1.798 1.798 0 0 0-.035-.36h-.877v-.605l.587-.044h.105a10 10 0 0 1-.128-.452 1.782 1.782 0 0 1-.057-.443c0-.526.163-.941.492-1.246.327-.304.748-.456 1.263-.456.322 0 .598.061.83.184.232.123.434.29.61.5l-.561.553a1.46 1.46 0 0 0-.351-.303.845.845 0 0 0-.44-.11c-.268 0-.48.082-.636.246-.155.163-.233.391-.233.683 0 .147.015.288.044.427.03.137.065.276.106.416h1.351v.65h-1.202c.018.11.026.233.026.368 0 .258-.038.475-.115.654a1.823 1.823 0 0 1-.35.522v.034h2.37v.86h-3.73Z"/></svg>