<svg xmlns="http://www.w3.org/2000/svg" width="38" height="38" viewBox="0 0 38 38"><g fill="none"><path stroke="#D74113" stroke-linecap="round" stroke-linejoin="round" stroke-width="2" d="M28 15.262v-4.595C28 9.194 26.756 8 25.222 8H5.778C4.244 8 3 9.194 3 10.667v18.666C3 30.806 4.244 32 5.778 32H16.12M21 5v5M10 5v5"/><path stroke="#D74113" stroke-linecap="square" stroke-linejoin="round" stroke-width="2" d="M4 15h14"/><circle cx="23" cy="24" r="10" stroke="#D74113" stroke-width="2"/><path fill="#D74113" d="M19.691 28v-1.31q.65-.289 1.08-.865.447-.576.447-1.34 0-.1-.014-.187a1.4 1.4 0 0 0-.015-.201h-1.44v-1.239l.98-.072h.086a7 7 0 0 1-.173-.576 3 3 0 0 1-.058-.576q0-.907.39-1.57a2.74 2.74 0 0 1 1.094-1.023q.705-.36 1.599-.36.806 0 1.397.303.604.302 1.095.864L25.006 21a1.7 1.7 0 0 0-.518-.447 1.2 1.2 0 0 0-.62-.158q-.576 0-.921.331-.332.332-.332 1.023 0 .26.044.518l.115.519h2.131v1.31h-1.858q.015.102.015.202.015.087.014.202 0 .518-.158.893-.145.375-.49.763v.058h3.73V28z"/><path stroke="#D74113" stroke-linecap="round" stroke-linejoin="round" stroke-width="2" d="M7 20h2m-2 7h2"/></g></svg>