<svg xmlns="http://www.w3.org/2000/svg" width="38" height="38" viewBox="0 0 38 38"><g fill="none" stroke="#D74113" stroke-width="2"><path stroke-linecap="round" d="m14.875 19.223 2.528 3.057a.906.906 0 0 0 1.397 0l6.044-7.311"/><path d="M18.497 34a2.23 2.23 0 0 1-1.796-.896 1.34 1.34 0 0 0-1.754-.348 2.248 2.248 0 0 1-3.317-1.374 1.34 1.34 0 0 0-1.485-.992 2.244 2.244 0 0 1-2.54-2.541 1.34 1.34 0 0 0-.992-1.485 2.247 2.247 0 0 1-1.374-3.317 1.34 1.34 0 0 0-.343-1.751 2.247 2.247 0 0 1 0-3.591 1.34 1.34 0 0 0 .347-1.752 2.248 2.248 0 0 1 1.375-3.317 1.34 1.34 0 0 0 .992-1.485 2.246 2.246 0 0 1 2.54-2.54 1.34 1.34 0 0 0 1.485-.993 2.247 2.247 0 0 1 3.317-1.374 1.34 1.34 0 0 0 1.754-.348A2.23 2.23 0 0 1 18.502 5a2.23 2.23 0 0 1 1.795.896 1.34 1.34 0 0 0 1.751.348 2.247 2.247 0 0 1 3.317 1.374 1.34 1.34 0 0 0 1.485.992 2.246 2.246 0 0 1 2.54 2.541 1.34 1.34 0 0 0 .992 1.485 2.246 2.246 0 0 1 1.374 3.317 1.34 1.34 0 0 0 .348 1.752 2.248 2.248 0 0 1 0 3.59 1.34 1.34 0 0 0-.348 1.752 2.246 2.246 0 0 1-1.374 3.318 1.34 1.34 0 0 0-.992 1.484 2.246 2.246 0 0 1-2.54 2.541 1.34 1.34 0 0 0-1.485.992 2.248 2.248 0 0 1-3.317 1.375 1.34 1.34 0 0 0-1.751.348 2.23 2.23 0 0 1-1.8.895Z"/><path stroke-linecap="round" d="M27.563 19.5a9.062 9.062 0 1 1-4.491-7.827"/></g></svg>