<?xml version="1.0" encoding="UTF-8"?>
<svg id="Layer_1" xmlns="http://www.w3.org/2000/svg" version="1.1" xmlns:xlink="http://www.w3.org/1999/xlink" viewBox="0 0 353.54 35.04">
  <!-- Generator: Adobe Illustrator 29.3.0, SVG Export Plug-In . SVG Version: 2.1.0 Build 146)  -->
  <defs>
    <style>
      .st0 {
        fill: none;
        stroke: #603913;
        stroke-width: .5px;
      }

      .st0, .st1 {
        stroke-miterlimit: 10;
      }

      .st1 {
        stroke: #231f20;
      }

      .st2 {
        fill: url(#linear-gradient);
      }
    </style>
    <linearGradient id="linear-gradient" x1="176.21" y1="5.98" x2="176.21" y2="28.48" gradientUnits="userSpaceOnUse">
      <stop offset="0" stop-color="#fee6a2"/>
      <stop offset=".2" stop-color="#fed268"/>
      <stop offset=".32" stop-color="#ffc84a"/>
      <stop offset=".69" stop-color="#dfa926"/>
      <stop offset="1" stop-color="#b4882d"/>
    </linearGradient>
  </defs>
  <g>
    <path class="st1" d="M2.12,25.67V5.98h16.88v2.81h2.81v8.44h-2.81v2.81H7.75v5.62H2.12ZM7.75,17.23h8.44v-8.44H7.75v8.44Z"/>
    <path class="st1" d="M24.28,25.67v-2.81h5.62v-8.44h-2.81v-2.81h8.44v11.25h5.62v2.81h-16.88ZM29.91,8.79v-2.81h5.62v2.81h-5.62Z"/>
    <path class="st1" d="M45.77,25.67v-2.81h2.81v-2.81h2.81v-2.81h-2.81v-2.81h-2.81v-2.81h5.62v2.81h2.81v2.81h2.81v-2.81h2.81v-2.81h5.62v2.81h-2.81v2.81h-2.81v2.81h2.81v2.81h2.81v2.81h-5.62v-2.81h-2.81v-2.81h-2.81v2.81h-2.81v2.81h-5.62Z"/>
    <path class="st1" d="M72.88,25.67v-2.81h-2.81v-8.44h2.81v-2.81h14.06v2.81h2.81v5.62h-14.06v2.81h11.25v2.81h-14.06ZM75.7,17.23h8.44v-2.81h-8.44v2.81Z"/>
    <path class="st1" d="M92.23,25.67v-2.81h5.62v-14.06h-2.81v-2.81h8.44v16.88h5.62v2.81h-16.88Z"/>
    <path class="st1" d="M133.41,8.79v11.25h-2.81v2.81h-2.81v2.81h-11.25v-2.81h-2.81v-14.06h2.81v-2.81h14.06v2.81h2.81ZM127.78,8.79h-8.44v14.06h5.62v-2.81h-2.81v-2.81h5.62v-8.44ZM130.6,25.67v-2.81h2.81v2.81h-2.81Z"/>
    <path class="st1" d="M140.83,25.67v-2.81h-2.81v-11.25h5.62v11.25h8.44v-11.25h5.62v14.06h-16.88Z"/>
    <path class="st1" d="M165.13,25.67v-2.81h-2.81v-8.44h2.81v-2.81h14.06v2.81h2.81v5.62h-14.06v2.81h11.25v2.81h-14.06ZM167.95,17.23h8.44v-2.81h-8.44v2.81Z"/>
    <path class="st1" d="M186.62,25.67v-2.81h14.06v-2.81h-11.25v-2.81h-2.81v-2.81h2.81v-2.81h14.06v2.81h-11.25v2.81h11.25v2.81h2.81v2.81h-2.81v2.81h-16.87Z"/>
    <path class="st1" d="M213.06,25.67v-11.25h-5.62v-2.81h5.62v-5.62h5.62v5.62h5.62v2.81h-5.62v11.25h-5.62Z"/>
    <path class="st1" d="M236.23,25.67v-2.81h-2.81v-2.81h5.62v2.81h8.44V5.98h5.62v16.88h-2.81v2.81h-14.06Z"/>
    <path class="st1" d="M260.53,25.67v-2.81h-2.81v-2.81h2.81v-2.81h11.25v-2.81h-11.25v-2.81h14.06v2.81h2.81v11.25h-16.88ZM263.35,22.85h8.44v-2.81h-8.44v2.81Z"/>
    <path class="st1" d="M282.02,28.48V11.6h16.88v2.81h2.81v5.62h-2.81v2.81h-11.25v5.62h-5.62ZM287.65,20.04h8.44v-5.62h-8.44v5.62Z"/>
    <path class="st1" d="M309.13,25.67v-2.81h-2.81v-2.81h2.81v-2.81h11.25v-2.81h-11.25v-2.81h14.06v2.81h2.81v11.25h-16.88ZM311.95,22.85h8.44v-2.81h-8.44v2.81Z"/>
    <path class="st1" d="M330.62,25.67v-14.06h16.88v2.81h2.81v11.25h-5.62v-11.25h-8.44v11.25h-5.62Z"/>
  </g>
  <g>
    <path class="st2" d="M2.12,25.67V5.98h16.88v2.81h2.81v8.44h-2.81v2.81H7.75v5.62H2.12ZM7.75,17.23h8.44v-8.44H7.75v8.44Z"/>
    <path class="st2" d="M24.28,25.67v-2.81h5.62v-8.44h-2.81v-2.81h8.44v11.25h5.62v2.81h-16.88ZM29.91,8.79v-2.81h5.62v2.81h-5.62Z"/>
    <path class="st2" d="M45.77,25.67v-2.81h2.81v-2.81h2.81v-2.81h-2.81v-2.81h-2.81v-2.81h5.62v2.81h2.81v2.81h2.81v-2.81h2.81v-2.81h5.62v2.81h-2.81v2.81h-2.81v2.81h2.81v2.81h2.81v2.81h-5.62v-2.81h-2.81v-2.81h-2.81v2.81h-2.81v2.81h-5.62Z"/>
    <path class="st2" d="M72.88,25.67v-2.81h-2.81v-8.44h2.81v-2.81h14.06v2.81h2.81v5.62h-14.06v2.81h11.25v2.81h-14.06ZM75.7,17.23h8.44v-2.81h-8.44v2.81Z"/>
    <path class="st2" d="M92.23,25.67v-2.81h5.62v-14.06h-2.81v-2.81h8.44v16.88h5.62v2.81h-16.88Z"/>
    <path class="st2" d="M133.41,8.79v11.25h-2.81v2.81h-2.81v2.81h-11.25v-2.81h-2.81v-14.06h2.81v-2.81h14.06v2.81h2.81ZM127.78,8.79h-8.44v14.06h5.62v-2.81h-2.81v-2.81h5.62v-8.44ZM130.6,25.67v-2.81h2.81v2.81h-2.81Z"/>
    <path class="st2" d="M140.83,25.67v-2.81h-2.81v-11.25h5.62v11.25h8.44v-11.25h5.62v14.06h-16.88Z"/>
    <path class="st2" d="M165.13,25.67v-2.81h-2.81v-8.44h2.81v-2.81h14.06v2.81h2.81v5.62h-14.06v2.81h11.25v2.81h-14.06ZM167.95,17.23h8.44v-2.81h-8.44v2.81Z"/>
    <path class="st2" d="M186.62,25.67v-2.81h14.06v-2.81h-11.25v-2.81h-2.81v-2.81h2.81v-2.81h14.06v2.81h-11.25v2.81h11.25v2.81h2.81v2.81h-2.81v2.81h-16.87Z"/>
    <path class="st2" d="M213.06,25.67v-11.25h-5.62v-2.81h5.62v-5.62h5.62v5.62h5.62v2.81h-5.62v11.25h-5.62Z"/>
    <path class="st2" d="M236.23,25.67v-2.81h-2.81v-2.81h5.62v2.81h8.44V5.98h5.62v16.88h-2.81v2.81h-14.06Z"/>
    <path class="st2" d="M260.53,25.67v-2.81h-2.81v-2.81h2.81v-2.81h11.25v-2.81h-11.25v-2.81h14.06v2.81h2.81v11.25h-16.88ZM263.35,22.85h8.44v-2.81h-8.44v2.81Z"/>
    <path class="st2" d="M282.02,28.48V11.6h16.88v2.81h2.81v5.62h-2.81v2.81h-11.25v5.62h-5.62ZM287.65,20.04h8.44v-5.62h-8.44v5.62Z"/>
    <path class="st2" d="M309.13,25.67v-2.81h-2.81v-2.81h2.81v-2.81h11.25v-2.81h-11.25v-2.81h14.06v2.81h2.81v11.25h-16.88ZM311.95,22.85h8.44v-2.81h-8.44v2.81Z"/>
    <path class="st2" d="M330.62,25.67v-14.06h16.88v2.81h2.81v11.25h-5.62v-11.25h-8.44v11.25h-5.62Z"/>
  </g>
  <g>
    <path class="st0" d="M2.12,25.67V5.98h16.88v2.81h2.81v8.44h-2.81v2.81H7.75v5.62H2.12ZM7.75,17.23h8.44v-8.44H7.75v8.44Z"/>
    <path class="st0" d="M24.28,25.67v-2.81h5.62v-8.44h-2.81v-2.81h8.44v11.25h5.62v2.81h-16.88ZM29.91,8.79v-2.81h5.62v2.81h-5.62Z"/>
    <path class="st0" d="M45.77,25.67v-2.81h2.81v-2.81h2.81v-2.81h-2.81v-2.81h-2.81v-2.81h5.62v2.81h2.81v2.81h2.81v-2.81h2.81v-2.81h5.62v2.81h-2.81v2.81h-2.81v2.81h2.81v2.81h2.81v2.81h-5.62v-2.81h-2.81v-2.81h-2.81v2.81h-2.81v2.81h-5.62Z"/>
    <path class="st0" d="M72.88,25.67v-2.81h-2.81v-8.44h2.81v-2.81h14.06v2.81h2.81v5.62h-14.06v2.81h11.25v2.81h-14.06ZM75.7,17.23h8.44v-2.81h-8.44v2.81Z"/>
    <path class="st0" d="M92.23,25.67v-2.81h5.62v-14.06h-2.81v-2.81h8.44v16.88h5.62v2.81h-16.88Z"/>
    <path class="st0" d="M133.41,8.79v11.25h-2.81v2.81h-2.81v2.81h-11.25v-2.81h-2.81v-14.06h2.81v-2.81h14.06v2.81h2.81ZM127.78,8.79h-8.44v14.06h5.62v-2.81h-2.81v-2.81h5.62v-8.44ZM130.6,25.67v-2.81h2.81v2.81h-2.81Z"/>
    <path class="st0" d="M140.83,25.67v-2.81h-2.81v-11.25h5.62v11.25h8.44v-11.25h5.62v14.06h-16.88Z"/>
    <path class="st0" d="M165.13,25.67v-2.81h-2.81v-8.44h2.81v-2.81h14.06v2.81h2.81v5.62h-14.06v2.81h11.25v2.81h-14.06ZM167.95,17.23h8.44v-2.81h-8.44v2.81Z"/>
    <path class="st0" d="M186.62,25.67v-2.81h14.06v-2.81h-11.25v-2.81h-2.81v-2.81h2.81v-2.81h14.06v2.81h-11.25v2.81h11.25v2.81h2.81v2.81h-2.81v2.81h-16.87Z"/>
    <path class="st0" d="M213.06,25.67v-11.25h-5.62v-2.81h5.62v-5.62h5.62v5.62h5.62v2.81h-5.62v11.25h-5.62Z"/>
    <path class="st0" d="M236.23,25.67v-2.81h-2.81v-2.81h5.62v2.81h8.44V5.98h5.62v16.88h-2.81v2.81h-14.06Z"/>
    <path class="st0" d="M260.53,25.67v-2.81h-2.81v-2.81h2.81v-2.81h11.25v-2.81h-11.25v-2.81h14.06v2.81h2.81v11.25h-16.88ZM263.35,22.85h8.44v-2.81h-8.44v2.81Z"/>
    <path class="st0" d="M282.02,28.48V11.6h16.88v2.81h2.81v5.62h-2.81v2.81h-11.25v5.62h-5.62ZM287.65,20.04h8.44v-5.62h-8.44v5.62Z"/>
    <path class="st0" d="M309.13,25.67v-2.81h-2.81v-2.81h2.81v-2.81h11.25v-2.81h-11.25v-2.81h14.06v2.81h2.81v11.25h-16.88ZM311.95,22.85h8.44v-2.81h-8.44v2.81Z"/>
    <path class="st0" d="M330.62,25.67v-14.06h16.88v2.81h2.81v11.25h-5.62v-11.25h-8.44v11.25h-5.62Z"/>
  </g>
</svg>